<svg id="Capa_1" enable-background="new 0 0 511.009 511.009" height="512" viewBox="0 0 511.009 511.009" width="512" xmlns="http://www.w3.org/2000/svg"><g><path d="m403.442 175.069c9.273 13.236 26.77 17.442 40.757 10.224 16.243 32.747 23.796 69.39 21.345 107.058l14.969.972c.324-4.991.488-9.975.488-14.814 0-202.465-244.647-299.757-384.953-159.453-46.984 46.984-69.731 110.036-65.558 174.266l14.969-.972c-2.45-37.66 5.099-74.305 21.346-107.06 13.968 7.211 31.47 3.033 40.756-10.222 16.359-23.352 38.291-42.748 63.424-56.092l-7.033-13.248c-27.216 14.45-50.964 35.451-68.676 60.734-4.76 6.794-13.773 9.336-21.318 5.615 81.581-138.622 281.48-138.67 363.088.002-7.533 3.71-16.549 1.191-21.319-5.617-53.518-76.389-153.204-104.014-237.715-67.492l5.951 13.77c78.039-33.728 170.074-8.19 219.479 62.329z"/><path d="m141.002 298.144v-.135h-75v15h-22.5c-15.163 0-27.5 12.336-27.5 27.5v16.429h15v-16.429c0-6.893 5.607-12.5 12.5-12.5h22.5v125h-22.5c-6.893 0-12.5-5.607-12.5-12.5v-68.571h-15v68.571c0 15.164 12.337 27.5 27.5 27.5h22.5v15h75v-.135c21.377 13.719 50-1.581 50-27.365v-130c0-25.803-28.644-41.071-50-27.365zm-15 169.864h-45v-155h16v102.5h15v-102.5h14zm50-12.5c0 9.649-7.851 17.5-17.5 17.5s-17.5-7.851-17.5-17.5v-130c0-9.649 7.851-17.5 17.5-17.5s17.5 7.851 17.5 17.5z"/><path d="m51.258 151.461-12.729-7.936c-30.949 49.645-43.353 107.634-36.85 164.38l14.902-1.708c-6.073-52.99 5.326-107.654 34.677-154.736z"/><path d="m334.802 51.387 4.943-14.162c-104.906-36.624-225.162-1.539-292.658 93.453l12.227 8.688c62.086-87.377 174.695-123.166 275.488-87.979z"/><path d="m354.144 42.748-5.795 13.835c99.356 41.619 158.282 143.1 146.072 249.614l14.902 1.708c13.029-113.684-50.52-221.317-155.179-265.157z"/><path d="m467.502 313.008h-22.5v-15h-75v.135c-5.056-3.245-11.059-5.135-17.5-5.135-17.921 0-32.5 14.58-32.5 32.5v130c0 25.803 28.643 41.071 50 27.365v.135h75v-15h22.5c15.163 0 27.5-12.336 27.5-27.5v-68.571h-15v68.571c0 6.893-5.607 12.5-12.5 12.5h-22.5v-125h22.5c6.893 0 12.5 5.607 12.5 12.5v16.429h15v-16.429c0-15.163-12.337-27.5-27.5-27.5zm-97.5 142.5c0 9.649-7.851 17.5-17.5 17.5s-17.5-7.851-17.5-17.5v-130c0-9.649 7.851-17.5 17.5-17.5s17.5 7.851 17.5 17.5zm60 12.5h-45c0-14.937 0-129.205 0-142.5v-12.5h15v102.5h15v-102.5h15z"/><path d="m97.002 431.508h15v15h-15z"/><path d="m400.002 431.508h15v15h-15z"/></g></svg>